<svg width="20" height="30" viewBox="0 0 26 32" fill="none" xmlns="http://www.w3.org/2000/svg">
<path d="M23.0661 20.0935C22.0918 21.2189 20.101 20.9349 19.5075 19.5696C18.5226 17.4437 17.7479 15.2243 16.8235 13.0725C15.9493 15.1513 15.1715 17.2772 14.2655 19.3456C13.8689 20.4502 12.532 21.1614 11.4185 20.6508C10.5387 20.247 10.0634 19.2544 9.86108 18.7151C9.11788 16.7405 8.12245 14.2917 6.88553 11.3267C6.502 10.402 7.18493 9.38602 8.19074 9.38602C8.47297 9.38561 8.74887 9.46901 8.98291 9.62548C9.21695 9.78194 9.39842 10.0043 9.50396 10.264C10.4047 12.4731 11.3029 14.6898 12.2142 16.8966C12.9838 15.0178 13.7348 13.1348 14.4886 11.2487C14.8301 10.402 15.2739 9.45105 16.23 9.16184C17.2829 8.76857 18.4255 9.51356 18.822 10.4806C19.8358 12.7522 20.6795 15.0943 21.6611 17.3737C22.6564 15.6936 23.2819 13.7734 23.1738 11.804C23.0556 7.47406 19.5233 3.53037 15.2003 2.93424C10.0607 2.15963 4.82127 5.65838 3.34269 10.5508C1.87358 15.4113 4.10338 20.2891 7.21898 22.6903C7.21898 22.6903 10.1567 24.9547 14.3626 25.0374C14.6673 25.0403 14.9708 24.9991 15.2635 24.9151C15.3849 24.8768 15.5034 24.8298 15.6179 24.7744L14.6148 24.0944L13.9046 23.5705L13.2697 23.0234C13.1428 22.8978 13.0473 22.7444 12.9909 22.5755C12.87 22.2074 12.9607 21.8148 13.142 21.567C13.4644 21.1269 14.1937 20.9786 14.8492 21.3141L19.2166 24.3961C19.2346 24.4112 19.2513 24.4278 19.2665 24.4456C19.2831 24.4496 19.2985 24.4576 19.3113 24.4689C19.8444 24.8468 19.9573 25.623 19.5555 26.1988L16.4749 30.6405C16.0783 31.2137 15.3141 31.3727 14.7783 30.9949C14.2373 30.6145 14.1244 29.8355 14.5288 29.2625L15.666 27.6524L15.6344 27.6602C15.6344 27.6602 14.3846 27.9673 12.8663 27.7724C7.07693 27.0317 3.58764 23.1899 3.58764 23.1899C1.49971 20.9318 0.327804 17.9613 0 14.9367V12.9475C0.289014 9.87647 1.48131 6.86709 3.58764 4.57722C5.90139 1.9564 9.25774 0.386222 12.7245 0H14.7703C18.526 0.34648 22.0873 2.42066 24.0832 5.61142C26.9688 9.96734 26.5696 16.1935 23.0661 20.0935Z" fill="url(#paint0_linear)"/>
<defs>
<linearGradient id="paint0_linear" x1="24.3641" y1="45.5419" x2="-16.2638" y2="4.76605" gradientUnits="userSpaceOnUse">
<stop stop-color="#1235EB"/>
<stop offset="0.492467" stop-color="#12B2EB"/>
<stop offset="0.797749" stop-color="#89E4FD"/>
</linearGradient>
</defs>
</svg>
